<svg width="200" height="200" viewBox="0 0 200 200" fill="none" xmlns="http://www.w3.org/2000/svg">
  <!-- Aleppo University Logo Placeholder -->
  <!-- Shield/Emblem Base -->
  <path d="M100 10L170 50V110C170 150 140 180 100 190C60 180 30 150 30 110V50L100 10Z" fill="#003366" stroke="#C0A062" stroke-width="3"/>

  <!-- Inner Shield -->
  <path d="M100 30L150 60V100C150 130 130 150 100 160C70 150 50 130 50 100V60L100 30Z" fill="#C0A062"/>

  <!-- Book Symbol -->
  <rect x="75" y="70" width="50" height="35" rx="2" fill="#003366"/>
  <line x1="100" y1="70" x2="100" y2="105" stroke="#C0A062" stroke-width="2"/>
  <line x1="75" y1="80" x2="100" y2="80" stroke="#C0A062" stroke-width="1"/>
  <line x1="100" y1="80" x2="125" y2="80" stroke="#C0A062" stroke-width="1"/>
  <line x1="75" y1="87" x2="100" y2="87" stroke="#C0A062" stroke-width="1"/>
  <line x1="100" y1="87" x2="125" y2="87" stroke="#C0A062" stroke-width="1"/>
  <line x1="75" y1="94" x2="100" y2="94" stroke="#C0A062" stroke-width="1"/>
  <line x1="100" y1="94" x2="125" y2="94" stroke="#C0A062" stroke-width="1"/>

  <!-- Laurel Branches -->
  <path d="M65 120Q60 130 65 140" stroke="#C0A062" stroke-width="2" fill="none"/>
  <path d="M135 120Q140 130 135 140" stroke="#C0A062" stroke-width="2" fill="none"/>
  <ellipse cx="62" cy="125" rx="3" ry="5" fill="#C0A062"/>
  <ellipse cx="59" cy="133" rx="3" ry="5" fill="#C0A062"/>
  <ellipse cx="62" cy="141" rx="3" ry="5" fill="#C0A062"/>
  <ellipse cx="138" cy="125" rx="3" ry="5" fill="#C0A062"/>
  <ellipse cx="141" cy="133" rx="3" ry="5" fill="#C0A062"/>
  <ellipse cx="138" cy="141" rx="3" ry="5" fill="#C0A062"/>

  <!-- Star -->
  <path d="M100 50L103 59L112 59L105 65L108 74L100 68L92 74L95 65L88 59L97 59Z" fill="#FFFFFF"/>
</svg>
